<?xml version="1.0" encoding="utf-8" standalone="no"?>
<!DOCTYPE svg PUBLIC "-//W3C//DTD SVG 1.1//EN"
  "http://www.w3.org/Graphics/SVG/1.1/DTD/svg11.dtd">
<svg xmlns:xlink="http://www.w3.org/1999/xlink" width="394.697273pt" height="288.022572pt" viewBox="0 0 394.697273 288.022572" xmlns="http://www.w3.org/2000/svg" version="1.1">
 <metadata>
  <rdf:RDF xmlns:dc="http://purl.org/dc/elements/1.1/" xmlns:cc="http://creativecommons.org/ns#" xmlns:rdf="http://www.w3.org/1999/02/22-rdf-syntax-ns#">
   <cc:Work>
    <dc:type rdf:resource="http://purl.org/dc/dcmitype/StillImage"/>
    <dc:date>2024-02-04T17:42:58.790127</dc:date>
    <dc:format>image/svg+xml</dc:format>
    <dc:creator>
     <cc:Agent>
      <dc:title>Matplotlib v3.8.2, https://matplotlib.org/</dc:title>
     </cc:Agent>
    </dc:creator>
   </cc:Work>
  </rdf:RDF>
 </metadata>
 <defs>
  <style type="text/css">*{stroke-linejoin: round; stroke-linecap: butt}</style>
 </defs>
 <g id="figure_1">
  <g id="patch_1">
   <path d="M 0 288.022572 
L 394.697273 288.022572 
L 394.697273 0 
L 0 0 
L 0 288.022572 
z
" style="fill: none"/>
  </g>
  <g id="axes_1">
   <g id="patch_2">
    <path d="M 35.531875 271.344447 
L 392.651875 271.344447 
L 392.651875 5.232447 
L 35.531875 5.232447 
L 35.531875 271.344447 
z
" style="fill: none"/>
   </g>
   <g id="matplotlib.axis_1">
    <g id="xtick_1">
     <g id="line2d_1">
      <defs>
       <path id="mc059b2b7f3" d="M 0 0 
L 0 3.5 
" style="stroke: #000000; stroke-width: 0.8"/>
      </defs>
      <g>
       <use xlink:href="#mc059b2b7f3" x="51.764602" y="271.344447" style="stroke: #000000; stroke-width: 0.8"/>
      </g>
     </g>
     <g id="text_1">
      <!-- 2018 -->
      <g transform="translate(39.039602 285.942884) scale(0.1 -0.1)">
       <defs>
        <path id="DejaVuSans-32" d="M 1228 531 
L 3431 531 
L 3431 0 
L 469 0 
L 469 531 
Q 828 903 1448 1529 
Q 2069 2156 2228 2338 
Q 2531 2678 2651 2914 
Q 2772 3150 2772 3378 
Q 2772 3750 2511 3984 
Q 2250 4219 1831 4219 
Q 1534 4219 1204 4116 
Q 875 4013 500 3803 
L 500 4441 
Q 881 4594 1212 4672 
Q 1544 4750 1819 4750 
Q 2544 4750 2975 4387 
Q 3406 4025 3406 3419 
Q 3406 3131 3298 2873 
Q 3191 2616 2906 2266 
Q 2828 2175 2409 1742 
Q 1991 1309 1228 531 
z
" transform="scale(0.015625)"/>
        <path id="DejaVuSans-30" d="M 2034 4250 
Q 1547 4250 1301 3770 
Q 1056 3291 1056 2328 
Q 1056 1369 1301 889 
Q 1547 409 2034 409 
Q 2525 409 2770 889 
Q 3016 1369 3016 2328 
Q 3016 3291 2770 3770 
Q 2525 4250 2034 4250 
z
M 2034 4750 
Q 2819 4750 3233 4129 
Q 3647 3509 3647 2328 
Q 3647 1150 3233 529 
Q 2819 -91 2034 -91 
Q 1250 -91 836 529 
Q 422 1150 422 2328 
Q 422 3509 836 4129 
Q 1250 4750 2034 4750 
z
" transform="scale(0.015625)"/>
        <path id="DejaVuSans-31" d="M 794 531 
L 1825 531 
L 1825 4091 
L 703 3866 
L 703 4441 
L 1819 4666 
L 2450 4666 
L 2450 531 
L 3481 531 
L 3481 0 
L 794 0 
L 794 531 
z
" transform="scale(0.015625)"/>
        <path id="DejaVuSans-38" d="M 2034 2216 
Q 1584 2216 1326 1975 
Q 1069 1734 1069 1313 
Q 1069 891 1326 650 
Q 1584 409 2034 409 
Q 2484 409 2743 651 
Q 3003 894 3003 1313 
Q 3003 1734 2745 1975 
Q 2488 2216 2034 2216 
z
M 1403 2484 
Q 997 2584 770 2862 
Q 544 3141 544 3541 
Q 544 4100 942 4425 
Q 1341 4750 2034 4750 
Q 2731 4750 3128 4425 
Q 3525 4100 3525 3541 
Q 3525 3141 3298 2862 
Q 3072 2584 2669 2484 
Q 3125 2378 3379 2068 
Q 3634 1759 3634 1313 
Q 3634 634 3220 271 
Q 2806 -91 2034 -91 
Q 1263 -91 848 271 
Q 434 634 434 1313 
Q 434 1759 690 2068 
Q 947 2378 1403 2484 
z
M 1172 3481 
Q 1172 3119 1398 2916 
Q 1625 2713 2034 2713 
Q 2441 2713 2670 2916 
Q 2900 3119 2900 3481 
Q 2900 3844 2670 4047 
Q 2441 4250 2034 4250 
Q 1625 4250 1398 4047 
Q 1172 3844 1172 3481 
z
" transform="scale(0.015625)"/>
       </defs>
       <use xlink:href="#DejaVuSans-32"/>
       <use xlink:href="#DejaVuSans-30" x="63.623047"/>
       <use xlink:href="#DejaVuSans-31" x="127.246094"/>
       <use xlink:href="#DejaVuSans-38" x="190.869141"/>
      </g>
     </g>
    </g>
    <g id="xtick_2">
     <g id="line2d_2">
      <g>
       <use xlink:href="#mc059b2b7f3" x="116.695511" y="271.344447" style="stroke: #000000; stroke-width: 0.8"/>
      </g>
     </g>
     <g id="text_2">
      <!-- 2019 -->
      <g transform="translate(103.970511 285.942884) scale(0.1 -0.1)">
       <defs>
        <path id="DejaVuSans-39" d="M 703 97 
L 703 672 
Q 941 559 1184 500 
Q 1428 441 1663 441 
Q 2288 441 2617 861 
Q 2947 1281 2994 2138 
Q 2813 1869 2534 1725 
Q 2256 1581 1919 1581 
Q 1219 1581 811 2004 
Q 403 2428 403 3163 
Q 403 3881 828 4315 
Q 1253 4750 1959 4750 
Q 2769 4750 3195 4129 
Q 3622 3509 3622 2328 
Q 3622 1225 3098 567 
Q 2575 -91 1691 -91 
Q 1453 -91 1209 -44 
Q 966 3 703 97 
z
M 1959 2075 
Q 2384 2075 2632 2365 
Q 2881 2656 2881 3163 
Q 2881 3666 2632 3958 
Q 2384 4250 1959 4250 
Q 1534 4250 1286 3958 
Q 1038 3666 1038 3163 
Q 1038 2656 1286 2365 
Q 1534 2075 1959 2075 
z
" transform="scale(0.015625)"/>
       </defs>
       <use xlink:href="#DejaVuSans-32"/>
       <use xlink:href="#DejaVuSans-30" x="63.623047"/>
       <use xlink:href="#DejaVuSans-31" x="127.246094"/>
       <use xlink:href="#DejaVuSans-39" x="190.869141"/>
      </g>
     </g>
    </g>
    <g id="xtick_3">
     <g id="line2d_3">
      <g>
       <use xlink:href="#mc059b2b7f3" x="181.62642" y="271.344447" style="stroke: #000000; stroke-width: 0.8"/>
      </g>
     </g>
     <g id="text_3">
      <!-- 2020 -->
      <g transform="translate(168.90142 285.942884) scale(0.1 -0.1)">
       <use xlink:href="#DejaVuSans-32"/>
       <use xlink:href="#DejaVuSans-30" x="63.623047"/>
       <use xlink:href="#DejaVuSans-32" x="127.246094"/>
       <use xlink:href="#DejaVuSans-30" x="190.869141"/>
      </g>
     </g>
    </g>
    <g id="xtick_4">
     <g id="line2d_4">
      <g>
       <use xlink:href="#mc059b2b7f3" x="246.55733" y="271.344447" style="stroke: #000000; stroke-width: 0.8"/>
      </g>
     </g>
     <g id="text_4">
      <!-- 2021 -->
      <g transform="translate(233.83233 285.942884) scale(0.1 -0.1)">
       <use xlink:href="#DejaVuSans-32"/>
       <use xlink:href="#DejaVuSans-30" x="63.623047"/>
       <use xlink:href="#DejaVuSans-32" x="127.246094"/>
       <use xlink:href="#DejaVuSans-31" x="190.869141"/>
      </g>
     </g>
    </g>
    <g id="xtick_5">
     <g id="line2d_5">
      <g>
       <use xlink:href="#mc059b2b7f3" x="311.488239" y="271.344447" style="stroke: #000000; stroke-width: 0.8"/>
      </g>
     </g>
     <g id="text_5">
      <!-- 2022 -->
      <g transform="translate(298.763239 285.942884) scale(0.1 -0.1)">
       <use xlink:href="#DejaVuSans-32"/>
       <use xlink:href="#DejaVuSans-30" x="63.623047"/>
       <use xlink:href="#DejaVuSans-32" x="127.246094"/>
       <use xlink:href="#DejaVuSans-32" x="190.869141"/>
      </g>
     </g>
    </g>
    <g id="xtick_6">
     <g id="line2d_6">
      <g>
       <use xlink:href="#mc059b2b7f3" x="376.419148" y="271.344447" style="stroke: #000000; stroke-width: 0.8"/>
      </g>
     </g>
     <g id="text_6">
      <!-- 2023 -->
      <g transform="translate(363.694148 285.942884) scale(0.1 -0.1)">
       <defs>
        <path id="DejaVuSans-33" d="M 2597 2516 
Q 3050 2419 3304 2112 
Q 3559 1806 3559 1356 
Q 3559 666 3084 287 
Q 2609 -91 1734 -91 
Q 1441 -91 1130 -33 
Q 819 25 488 141 
L 488 750 
Q 750 597 1062 519 
Q 1375 441 1716 441 
Q 2309 441 2620 675 
Q 2931 909 2931 1356 
Q 2931 1769 2642 2001 
Q 2353 2234 1838 2234 
L 1294 2234 
L 1294 2753 
L 1863 2753 
Q 2328 2753 2575 2939 
Q 2822 3125 2822 3475 
Q 2822 3834 2567 4026 
Q 2313 4219 1838 4219 
Q 1578 4219 1281 4162 
Q 984 4106 628 3988 
L 628 4550 
Q 988 4650 1302 4700 
Q 1616 4750 1894 4750 
Q 2613 4750 3031 4423 
Q 3450 4097 3450 3541 
Q 3450 3153 3228 2886 
Q 3006 2619 2597 2516 
z
" transform="scale(0.015625)"/>
       </defs>
       <use xlink:href="#DejaVuSans-32"/>
       <use xlink:href="#DejaVuSans-30" x="63.623047"/>
       <use xlink:href="#DejaVuSans-32" x="127.246094"/>
       <use xlink:href="#DejaVuSans-33" x="190.869141"/>
      </g>
     </g>
    </g>
   </g>
   <g id="matplotlib.axis_2">
    <g id="ytick_1">
     <g id="line2d_7">
      <defs>
       <path id="m3a5e60abe0" d="M 0 0 
L -3.5 0 
" style="stroke: #000000; stroke-width: 0.8"/>
      </defs>
      <g>
       <use xlink:href="#m3a5e60abe0" x="35.531875" y="259.248447" style="stroke: #000000; stroke-width: 0.8"/>
      </g>
     </g>
     <g id="text_7">
      <!-- 0 -->
      <g transform="translate(22.169375 263.047665) scale(0.1 -0.1)">
       <use xlink:href="#DejaVuSans-30"/>
      </g>
     </g>
    </g>
    <g id="ytick_2">
     <g id="line2d_8">
      <g>
       <use xlink:href="#m3a5e60abe0" x="35.531875" y="220.895276" style="stroke: #000000; stroke-width: 0.8"/>
      </g>
     </g>
     <g id="text_8">
      <!-- 10 -->
      <g transform="translate(15.806875 224.694495) scale(0.1 -0.1)">
       <use xlink:href="#DejaVuSans-31"/>
       <use xlink:href="#DejaVuSans-30" x="63.623047"/>
      </g>
     </g>
    </g>
    <g id="ytick_3">
     <g id="line2d_9">
      <g>
       <use xlink:href="#m3a5e60abe0" x="35.531875" y="182.542105" style="stroke: #000000; stroke-width: 0.8"/>
      </g>
     </g>
     <g id="text_9">
      <!-- 20 -->
      <g transform="translate(15.806875 186.341324) scale(0.1 -0.1)">
       <use xlink:href="#DejaVuSans-32"/>
       <use xlink:href="#DejaVuSans-30" x="63.623047"/>
      </g>
     </g>
    </g>
    <g id="ytick_4">
     <g id="line2d_10">
      <g>
       <use xlink:href="#m3a5e60abe0" x="35.531875" y="144.188934" style="stroke: #000000; stroke-width: 0.8"/>
      </g>
     </g>
     <g id="text_10">
      <!-- 30 -->
      <g transform="translate(15.806875 147.988153) scale(0.1 -0.1)">
       <use xlink:href="#DejaVuSans-33"/>
       <use xlink:href="#DejaVuSans-30" x="63.623047"/>
      </g>
     </g>
    </g>
    <g id="ytick_5">
     <g id="line2d_11">
      <g>
       <use xlink:href="#m3a5e60abe0" x="35.531875" y="105.835764" style="stroke: #000000; stroke-width: 0.8"/>
      </g>
     </g>
     <g id="text_11">
      <!-- 40 -->
      <g transform="translate(15.806875 109.634982) scale(0.1 -0.1)">
       <defs>
        <path id="DejaVuSans-34" d="M 2419 4116 
L 825 1625 
L 2419 1625 
L 2419 4116 
z
M 2253 4666 
L 3047 4666 
L 3047 1625 
L 3713 1625 
L 3713 1100 
L 3047 1100 
L 3047 0 
L 2419 0 
L 2419 1100 
L 313 1100 
L 313 1709 
L 2253 4666 
z
" transform="scale(0.015625)"/>
       </defs>
       <use xlink:href="#DejaVuSans-34"/>
       <use xlink:href="#DejaVuSans-30" x="63.623047"/>
      </g>
     </g>
    </g>
    <g id="ytick_6">
     <g id="line2d_12">
      <g>
       <use xlink:href="#m3a5e60abe0" x="35.531875" y="67.482593" style="stroke: #000000; stroke-width: 0.8"/>
      </g>
     </g>
     <g id="text_12">
      <!-- 50 -->
      <g transform="translate(15.806875 71.281812) scale(0.1 -0.1)">
       <defs>
        <path id="DejaVuSans-35" d="M 691 4666 
L 3169 4666 
L 3169 4134 
L 1269 4134 
L 1269 2991 
Q 1406 3038 1543 3061 
Q 1681 3084 1819 3084 
Q 2600 3084 3056 2656 
Q 3513 2228 3513 1497 
Q 3513 744 3044 326 
Q 2575 -91 1722 -91 
Q 1428 -91 1123 -41 
Q 819 9 494 109 
L 494 744 
Q 775 591 1075 516 
Q 1375 441 1709 441 
Q 2250 441 2565 725 
Q 2881 1009 2881 1497 
Q 2881 1984 2565 2268 
Q 2250 2553 1709 2553 
Q 1456 2553 1204 2497 
Q 953 2441 691 2322 
L 691 4666 
z
" transform="scale(0.015625)"/>
       </defs>
       <use xlink:href="#DejaVuSans-35"/>
       <use xlink:href="#DejaVuSans-30" x="63.623047"/>
      </g>
     </g>
    </g>
    <g id="ytick_7">
     <g id="line2d_13">
      <g>
       <use xlink:href="#m3a5e60abe0" x="35.531875" y="29.129422" style="stroke: #000000; stroke-width: 0.8"/>
      </g>
     </g>
     <g id="text_13">
      <!-- 60 -->
      <g transform="translate(15.806875 32.928641) scale(0.1 -0.1)">
       <defs>
        <path id="DejaVuSans-36" d="M 2113 2584 
Q 1688 2584 1439 2293 
Q 1191 2003 1191 1497 
Q 1191 994 1439 701 
Q 1688 409 2113 409 
Q 2538 409 2786 701 
Q 3034 994 3034 1497 
Q 3034 2003 2786 2293 
Q 2538 2584 2113 2584 
z
M 3366 4563 
L 3366 3988 
Q 3128 4100 2886 4159 
Q 2644 4219 2406 4219 
Q 1781 4219 1451 3797 
Q 1122 3375 1075 2522 
Q 1259 2794 1537 2939 
Q 1816 3084 2150 3084 
Q 2853 3084 3261 2657 
Q 3669 2231 3669 1497 
Q 3669 778 3244 343 
Q 2819 -91 2113 -91 
Q 1303 -91 875 529 
Q 447 1150 447 2328 
Q 447 3434 972 4092 
Q 1497 4750 2381 4750 
Q 2619 4750 2861 4703 
Q 3103 4656 3366 4563 
z
" transform="scale(0.015625)"/>
       </defs>
       <use xlink:href="#DejaVuSans-36"/>
       <use xlink:href="#DejaVuSans-30" x="63.623047"/>
      </g>
     </g>
    </g>
    <g id="text_14">
     <!-- Growth Since 2018 (%) -->
     <g transform="translate(8.98875 205.967509) rotate(-90) scale(0.12 -0.12)">
      <defs>
       <path id="Rockwell-Regular-47" d="M 4353 4191 
L 4353 4709 
L 4953 4709 
L 4953 3163 
L 4353 3163 
Q 4147 3616 3701 3887 
Q 3256 4159 2766 4159 
Q 2278 4159 1897 3929 
Q 1516 3700 1305 3297 
Q 1094 2894 1094 2381 
Q 1094 1844 1316 1428 
Q 1538 1013 1933 781 
Q 2328 550 2834 550 
Q 3219 550 3548 690 
Q 3878 831 4095 1090 
Q 4313 1350 4366 1684 
L 3500 1684 
L 3500 2278 
L 5216 2278 
L 5216 2125 
Q 5216 1453 4909 953 
Q 4603 453 4064 187 
Q 3525 -78 2853 -78 
Q 2088 -78 1511 230 
Q 934 538 626 1091 
Q 319 1644 319 2375 
Q 319 3072 626 3622 
Q 934 4172 1475 4480 
Q 2016 4788 2700 4788 
Q 3669 4788 4353 4191 
z
" transform="scale(0.015625)"/>
       <path id="Rockwell-Regular-72" d="M 1441 1319 
L 1441 575 
L 2156 575 
L 2156 0 
L 141 0 
L 141 575 
L 800 575 
L 800 2706 
L 141 2706 
L 141 3284 
L 1313 3284 
L 1313 2541 
Q 1509 2981 1801 3154 
Q 2094 3328 2638 3328 
L 2784 3328 
L 2784 2675 
L 2644 2675 
Q 2119 2675 1862 2537 
Q 1606 2400 1523 2122 
Q 1441 1844 1441 1319 
z
" transform="scale(0.015625)"/>
       <path id="Rockwell-Regular-6f" d="M 3694 1638 
Q 3694 1159 3466 762 
Q 3238 366 2844 134 
Q 2450 -97 1972 -97 
Q 1478 -97 1081 134 
Q 684 366 464 762 
Q 244 1159 244 1638 
Q 244 2138 464 2531 
Q 684 2925 1078 3148 
Q 1472 3372 1972 3372 
Q 2456 3372 2850 3136 
Q 3244 2900 3469 2503 
Q 3694 2106 3694 1638 
z
M 1972 531 
Q 2259 531 2500 681 
Q 2741 831 2875 1084 
Q 3009 1338 3009 1638 
Q 3009 1931 2875 2184 
Q 2741 2438 2500 2592 
Q 2259 2747 1966 2747 
Q 1678 2747 1437 2595 
Q 1197 2444 1059 2187 
Q 922 1931 922 1638 
Q 922 1344 1059 1087 
Q 1197 831 1440 681 
Q 1684 531 1972 531 
z
" transform="scale(0.015625)"/>
       <path id="Rockwell-Regular-77" d="M 1056 2706 
L 1678 728 
L 2303 2706 
L 1953 2706 
L 1953 3284 
L 3531 3284 
L 3531 2706 
L 3169 2706 
L 3803 728 
L 4434 2706 
L 3981 2706 
L 3981 3284 
L 5459 3284 
L 5459 2706 
L 4984 2706 
L 4109 -56 
L 3500 -56 
L 2747 2316 
L 1984 -56 
L 1381 -56 
L 500 2706 
L 103 2706 
L 103 3284 
L 1484 3284 
L 1484 2706 
L 1056 2706 
z
" transform="scale(0.015625)"/>
       <path id="Rockwell-Regular-74" d="M 1888 3284 
L 1888 2706 
L 1288 2706 
L 1288 984 
Q 1288 716 1345 636 
Q 1403 556 1544 556 
Q 1716 556 1888 616 
L 1888 31 
Q 1588 -56 1403 -56 
Q 997 -56 819 148 
Q 641 353 641 850 
L 641 2706 
L 213 2706 
L 213 3284 
L 641 3284 
L 641 3781 
L 1288 4372 
L 1288 3284 
L 1888 3284 
z
" transform="scale(0.015625)"/>
       <path id="Rockwell-Regular-68" d="M 2431 3372 
Q 3347 3372 3347 2381 
L 3347 575 
L 3903 575 
L 3903 0 
L 2700 0 
L 2700 2150 
Q 2700 2503 2598 2647 
Q 2497 2791 2284 2791 
Q 1925 2791 1350 2369 
L 1350 575 
L 1919 575 
L 1919 0 
L 116 0 
L 116 575 
L 703 575 
L 703 4141 
L 116 4141 
L 116 4709 
L 1350 4709 
L 1350 2900 
Q 1931 3372 2431 3372 
z
" transform="scale(0.015625)"/>
       <path id="Rockwell-Regular-20" transform="scale(0.015625)"/>
       <path id="Rockwell-Regular-53" d="M 2656 4416 
L 2656 4738 
L 3231 4738 
L 3231 3309 
L 2656 3309 
L 2656 3634 
Q 2291 4184 1656 4184 
Q 1269 4184 1062 4028 
Q 856 3872 856 3578 
Q 856 3297 1051 3150 
Q 1247 3003 1650 2900 
L 2203 2753 
Q 2731 2613 3014 2381 
Q 3297 2150 3383 1890 
Q 3469 1631 3469 1313 
Q 3469 672 3069 297 
Q 2669 -78 1997 -78 
Q 1356 -78 831 391 
L 831 0 
L 244 0 
L 244 1716 
L 831 1716 
L 831 1300 
Q 1253 525 1931 525 
Q 2328 525 2547 729 
Q 2766 934 2766 1306 
Q 2766 1813 2053 2009 
L 1466 2175 
Q 831 2356 528 2665 
Q 225 2975 225 3481 
Q 225 4103 592 4445 
Q 959 4788 1606 4788 
Q 2169 4788 2656 4416 
z
" transform="scale(0.015625)"/>
       <path id="Rockwell-Regular-69" d="M 1356 4391 
Q 1356 4231 1240 4115 
Q 1125 4000 966 4000 
Q 806 4000 693 4115 
Q 581 4231 581 4391 
Q 581 4550 693 4665 
Q 806 4781 966 4781 
Q 1131 4781 1243 4668 
Q 1356 4556 1356 4391 
z
M 1819 575 
L 1819 0 
L 159 0 
L 159 575 
L 672 575 
L 672 2706 
L 159 2706 
L 159 3284 
L 1319 3284 
L 1319 575 
L 1819 575 
z
" transform="scale(0.015625)"/>
       <path id="Rockwell-Regular-6e" d="M 3372 2209 
L 3372 575 
L 3922 575 
L 3922 0 
L 2725 0 
L 2725 2169 
Q 2725 2478 2636 2612 
Q 2547 2747 2344 2747 
Q 1913 2747 1375 2322 
L 1375 575 
L 1941 575 
L 1941 0 
L 159 0 
L 159 575 
L 738 575 
L 738 2706 
L 159 2706 
L 159 3284 
L 1375 3284 
L 1375 2888 
Q 1978 3328 2509 3328 
Q 2950 3328 3161 3056 
Q 3372 2784 3372 2209 
z
" transform="scale(0.015625)"/>
       <path id="Rockwell-Regular-63" d="M 2778 3047 
L 2778 3284 
L 3353 3284 
L 3353 2041 
L 2778 2041 
Q 2741 2400 2491 2589 
Q 2241 2778 1913 2778 
Q 1631 2778 1407 2628 
Q 1184 2478 1062 2222 
Q 941 1966 941 1663 
Q 941 1147 1216 820 
Q 1491 494 1941 494 
Q 2638 494 2925 1141 
L 3463 884 
Q 3009 -97 1913 -97 
Q 1422 -97 1040 134 
Q 659 366 451 769 
Q 244 1172 244 1663 
Q 244 2144 455 2537 
Q 666 2931 1034 3151 
Q 1403 3372 1856 3372 
Q 2394 3372 2778 3047 
z
" transform="scale(0.015625)"/>
       <path id="Rockwell-Regular-65" d="M 3713 1478 
L 959 1478 
Q 1019 1006 1325 732 
Q 1631 459 2075 459 
Q 2400 459 2678 593 
Q 2956 728 3144 1006 
L 3713 750 
Q 3444 331 3008 117 
Q 2572 -97 2059 -97 
Q 1528 -97 1115 125 
Q 703 347 473 744 
Q 244 1141 244 1638 
Q 244 2131 470 2528 
Q 697 2925 1090 3148 
Q 1484 3372 1959 3372 
Q 2478 3372 2864 3142 
Q 3250 2913 3472 2486 
Q 3694 2059 3713 1478 
z
M 1972 2834 
Q 1606 2834 1331 2589 
Q 1056 2344 978 1941 
L 3034 1941 
Q 2944 2344 2650 2589 
Q 2356 2834 1972 2834 
z
" transform="scale(0.015625)"/>
       <path id="Rockwell-Regular-32" d="M 3291 3506 
Q 3291 3109 3089 2812 
Q 2888 2516 2375 2138 
L 2075 1913 
Q 1703 1631 1501 1456 
Q 1300 1281 1156 1068 
Q 1013 856 959 594 
L 2731 594 
L 2759 1684 
L 3328 1684 
L 3291 0 
L 275 0 
Q 281 575 473 998 
Q 666 1422 931 1697 
Q 1197 1972 1569 2253 
L 2034 2606 
Q 2356 2841 2484 3036 
Q 2613 3231 2613 3481 
Q 2613 3834 2408 4032 
Q 2203 4231 1844 4231 
Q 1381 4231 1200 3959 
Q 1019 3688 1019 3116 
L 1019 2956 
L 397 2956 
L 397 3138 
Q 397 3891 728 4313 
Q 928 4556 1203 4672 
Q 1478 4788 1863 4788 
Q 2338 4788 2656 4608 
Q 2975 4428 3133 4137 
Q 3291 3847 3291 3506 
z
" transform="scale(0.015625)"/>
       <path id="Rockwell-Regular-30" d="M 3506 2350 
Q 3506 1581 3307 1034 
Q 3109 488 2745 205 
Q 2381 -78 1881 -78 
Q 1088 -78 666 578 
Q 244 1234 244 2350 
Q 244 3122 442 3670 
Q 641 4219 1011 4503 
Q 1381 4788 1881 4788 
Q 2663 4788 3084 4134 
Q 3506 3481 3506 2350 
z
M 1881 475 
Q 2344 475 2583 912 
Q 2822 1350 2822 2375 
Q 2822 3391 2575 3814 
Q 2328 4238 1875 4238 
Q 1388 4238 1161 3764 
Q 934 3291 934 2350 
Q 934 1363 1171 919 
Q 1409 475 1881 475 
z
" transform="scale(0.015625)"/>
       <path id="Rockwell-Regular-31" d="M 2900 575 
L 2900 0 
L 997 0 
L 997 575 
L 1644 575 
L 1644 4141 
L 997 4141 
L 997 4703 
L 2291 4703 
L 2291 575 
L 2900 575 
z
" transform="scale(0.015625)"/>
       <path id="Rockwell-Regular-38" d="M 3378 3553 
Q 3378 2875 2681 2463 
Q 3525 2131 3525 1300 
Q 3525 884 3331 573 
Q 3138 263 2772 92 
Q 2406 -78 1906 -78 
Q 1172 -78 701 262 
Q 231 603 231 1300 
Q 231 2131 1069 2463 
Q 378 2859 378 3559 
Q 378 3956 579 4234 
Q 781 4513 1114 4650 
Q 1447 4788 1844 4788 
Q 2541 4788 2959 4455 
Q 3378 4122 3378 3553 
z
M 1894 2725 
Q 2228 2725 2484 2904 
Q 2741 3084 2741 3475 
Q 2741 3859 2522 4042 
Q 2303 4225 1856 4225 
Q 1459 4225 1236 4029 
Q 1013 3834 1013 3488 
Q 1013 3116 1245 2920 
Q 1478 2725 1894 2725 
z
M 1881 475 
Q 2291 475 2562 704 
Q 2834 934 2834 1325 
Q 2834 1709 2589 1942 
Q 2344 2175 1856 2175 
Q 1434 2175 1175 1942 
Q 916 1709 916 1325 
Q 916 941 1181 708 
Q 1447 475 1881 475 
z
" transform="scale(0.015625)"/>
       <path id="Rockwell-Regular-28" d="M 1369 2888 
Q 1247 2431 1247 1644 
Q 1247 1050 1325 637 
Q 1403 225 1556 -72 
Q 1850 -641 2406 -978 
L 2406 -1503 
Q 1709 -1228 1131 -409 
Q 563 391 563 1650 
Q 563 2772 1063 3603 
Q 1569 4441 2406 4794 
L 2406 4275 
Q 2075 4103 1776 3703 
Q 1478 3303 1369 2888 
z
" transform="scale(0.015625)"/>
       <path id="Rockwell-Regular-25" d="M 2328 3525 
Q 2328 2950 2073 2604 
Q 1819 2259 1325 2259 
Q 863 2259 591 2589 
Q 319 2919 319 3525 
Q 319 4050 566 4419 
Q 813 4788 1319 4788 
Q 1791 4788 2059 4455 
Q 2328 4122 2328 3525 
z
M 588 0 
L 4325 4709 
L 4878 4709 
L 1159 0 
L 588 0 
z
M 1325 2681 
Q 1784 2681 1784 3525 
Q 1784 4366 1325 4366 
Q 1094 4366 975 4164 
Q 856 3963 856 3525 
Q 856 2681 1325 2681 
z
M 5159 1184 
Q 5159 609 4903 265 
Q 4647 -78 4147 -78 
Q 3688 -78 3416 248 
Q 3144 575 3144 1184 
Q 3144 1728 3392 2089 
Q 3641 2450 4141 2450 
Q 4622 2450 4890 2117 
Q 5159 1784 5159 1184 
z
M 4147 347 
Q 4616 347 4616 1184 
Q 4616 1600 4497 1814 
Q 4378 2028 4147 2028 
Q 3681 2028 3681 1184 
Q 3681 347 4147 347 
z
" transform="scale(0.015625)"/>
       <path id="Rockwell-Regular-29" d="M 1522 3622 
Q 2041 2816 2041 1644 
Q 2041 525 1570 -262 
Q 1100 -1050 191 -1503 
L 191 -978 
Q 616 -738 897 -314 
Q 1178 109 1259 531 
Q 1319 813 1334 1063 
Q 1350 1313 1350 1716 
Q 1350 2894 984 3469 
Q 628 4038 191 4275 
L 191 4794 
Q 1006 4434 1522 3622 
z
" transform="scale(0.015625)"/>
      </defs>
      <use xlink:href="#Rockwell-Regular-47"/>
      <use xlink:href="#Rockwell-Regular-72" x="86.279297"/>
      <use xlink:href="#Rockwell-Regular-6f" x="131.591797"/>
      <use xlink:href="#Rockwell-Regular-77" x="193.115234"/>
      <use xlink:href="#Rockwell-Regular-74" x="280.029297"/>
      <use xlink:href="#Rockwell-Regular-68" x="312.646484"/>
      <use xlink:href="#Rockwell-Regular-20" x="375.439453"/>
      <use xlink:href="#Rockwell-Regular-53" x="402.539062"/>
      <use xlink:href="#Rockwell-Regular-69" x="460.15625"/>
      <use xlink:href="#Rockwell-Regular-6e" x="490.771484"/>
      <use xlink:href="#Rockwell-Regular-63" x="553.955078"/>
      <use xlink:href="#Rockwell-Regular-65" x="610.449219"/>
      <use xlink:href="#Rockwell-Regular-20" x="672.265625"/>
      <use xlink:href="#Rockwell-Regular-32" x="699.365234"/>
      <use xlink:href="#Rockwell-Regular-30" x="758.056641"/>
      <use xlink:href="#Rockwell-Regular-31" x="816.748047"/>
      <use xlink:href="#Rockwell-Regular-38" x="875.439453"/>
      <use xlink:href="#Rockwell-Regular-20" x="934.130859"/>
      <use xlink:href="#Rockwell-Regular-28" x="961.230469"/>
      <use xlink:href="#Rockwell-Regular-25" x="1001.806641"/>
      <use xlink:href="#Rockwell-Regular-29" x="1087.402344"/>
     </g>
    </g>
   </g>
   <g id="line2d_14">
    <path d="M 51.764602 259.248447 
L 116.695511 253.496375 
L 181.62642 254.361385 
L 246.55733 254.361385 
L 311.488239 249.474323 
L 376.419148 237.676957 
" clip-path="url(#p1fb740e591)" style="fill: none; stroke: #e84118; stroke-width: 1.5; stroke-linecap: square"/>
    <defs>
     <path id="m3bd81db862" d="M 0 3 
C 0.795609 3 1.55874 2.683901 2.12132 2.12132 
C 2.683901 1.55874 3 0.795609 3 0 
C 3 -0.795609 2.683901 -1.55874 2.12132 -2.12132 
C 1.55874 -2.683901 0.795609 -3 0 -3 
C -0.795609 -3 -1.55874 -2.683901 -2.12132 -2.12132 
C -2.683901 -1.55874 -3 -0.795609 -3 0 
C -3 0.795609 -2.683901 1.55874 -2.12132 2.12132 
C -1.55874 2.683901 -0.795609 3 0 3 
z
" style="stroke: #e84118"/>
    </defs>
    <g clip-path="url(#p1fb740e591)">
     <use xlink:href="#m3bd81db862" x="51.764602" y="259.248447" style="fill: #e84118; stroke: #e84118"/>
     <use xlink:href="#m3bd81db862" x="116.695511" y="253.496375" style="fill: #e84118; stroke: #e84118"/>
     <use xlink:href="#m3bd81db862" x="181.62642" y="254.361385" style="fill: #e84118; stroke: #e84118"/>
     <use xlink:href="#m3bd81db862" x="246.55733" y="254.361385" style="fill: #e84118; stroke: #e84118"/>
     <use xlink:href="#m3bd81db862" x="311.488239" y="249.474323" style="fill: #e84118; stroke: #e84118"/>
     <use xlink:href="#m3bd81db862" x="376.419148" y="237.676957" style="fill: #e84118; stroke: #e84118"/>
    </g>
   </g>
   <g id="line2d_15">
    <path d="M 51.764602 259.248447 
L 116.695511 253.017787 
L 181.62642 247.825571 
L 246.55733 235.364252 
L 311.488239 210.787762 
L 376.419148 185.865124 
" clip-path="url(#p1fb740e591)" style="fill: none; stroke: #0097e6; stroke-width: 1.5; stroke-linecap: square"/>
    <defs>
     <path id="mbf34176e59" d="M 0 3 
C 0.795609 3 1.55874 2.683901 2.12132 2.12132 
C 2.683901 1.55874 3 0.795609 3 0 
C 3 -0.795609 2.683901 -1.55874 2.12132 -2.12132 
C 1.55874 -2.683901 0.795609 -3 0 -3 
C -0.795609 -3 -1.55874 -2.683901 -2.12132 -2.12132 
C -2.683901 -1.55874 -3 -0.795609 -3 0 
C -3 0.795609 -2.683901 1.55874 -2.12132 2.12132 
C -1.55874 2.683901 -0.795609 3 0 3 
z
" style="stroke: #0097e6"/>
    </defs>
    <g clip-path="url(#p1fb740e591)">
     <use xlink:href="#mbf34176e59" x="51.764602" y="259.248447" style="fill: #0097e6; stroke: #0097e6"/>
     <use xlink:href="#mbf34176e59" x="116.695511" y="253.017787" style="fill: #0097e6; stroke: #0097e6"/>
     <use xlink:href="#mbf34176e59" x="181.62642" y="247.825571" style="fill: #0097e6; stroke: #0097e6"/>
     <use xlink:href="#mbf34176e59" x="246.55733" y="235.364252" style="fill: #0097e6; stroke: #0097e6"/>
     <use xlink:href="#mbf34176e59" x="311.488239" y="210.787762" style="fill: #0097e6; stroke: #0097e6"/>
     <use xlink:href="#mbf34176e59" x="376.419148" y="185.865124" style="fill: #0097e6; stroke: #0097e6"/>
    </g>
   </g>
   <g id="line2d_16">
    <path d="M 51.764602 259.248447 
L 116.695511 247.702335 
L 181.62642 235.654219 
L 246.55733 223.606102 
L 311.488239 211.055981 
L 376.419148 143.285326 
" clip-path="url(#p1fb740e591)" style="fill: none; stroke: #44bd32; stroke-width: 1.5; stroke-linecap: square"/>
    <defs>
     <path id="med036dc60f" d="M 0 3 
C 0.795609 3 1.55874 2.683901 2.12132 2.12132 
C 2.683901 1.55874 3 0.795609 3 0 
C 3 -0.795609 2.683901 -1.55874 2.12132 -2.12132 
C 1.55874 -2.683901 0.795609 -3 0 -3 
C -0.795609 -3 -1.55874 -2.683901 -2.12132 -2.12132 
C -2.683901 -1.55874 -3 -0.795609 -3 0 
C -3 0.795609 -2.683901 1.55874 -2.12132 2.12132 
C -1.55874 2.683901 -0.795609 3 0 3 
z
" style="stroke: #44bd32"/>
    </defs>
    <g clip-path="url(#p1fb740e591)">
     <use xlink:href="#med036dc60f" x="51.764602" y="259.248447" style="fill: #44bd32; stroke: #44bd32"/>
     <use xlink:href="#med036dc60f" x="116.695511" y="247.702335" style="fill: #44bd32; stroke: #44bd32"/>
     <use xlink:href="#med036dc60f" x="181.62642" y="235.654219" style="fill: #44bd32; stroke: #44bd32"/>
     <use xlink:href="#med036dc60f" x="246.55733" y="223.606102" style="fill: #44bd32; stroke: #44bd32"/>
     <use xlink:href="#med036dc60f" x="311.488239" y="211.055981" style="fill: #44bd32; stroke: #44bd32"/>
     <use xlink:href="#med036dc60f" x="376.419148" y="143.285326" style="fill: #44bd32; stroke: #44bd32"/>
    </g>
   </g>
   <g id="line2d_17">
    <path d="M 51.764602 259.248447 
L 116.695511 253.347959 
L 181.62642 229.746008 
L 246.55733 170.74113 
L 311.488239 111.736252 
L 376.419148 17.328447 
" clip-path="url(#p1fb740e591)" style="fill: none; stroke: #5f27cd; stroke-width: 1.5; stroke-linecap: square"/>
    <defs>
     <path id="m6ba260c011" d="M 0 3 
C 0.795609 3 1.55874 2.683901 2.12132 2.12132 
C 2.683901 1.55874 3 0.795609 3 0 
C 3 -0.795609 2.683901 -1.55874 2.12132 -2.12132 
C 1.55874 -2.683901 0.795609 -3 0 -3 
C -0.795609 -3 -1.55874 -2.683901 -2.12132 -2.12132 
C -2.683901 -1.55874 -3 -0.795609 -3 0 
C -3 0.795609 -2.683901 1.55874 -2.12132 2.12132 
C -1.55874 2.683901 -0.795609 3 0 3 
z
" style="stroke: #5f27cd"/>
    </defs>
    <g clip-path="url(#p1fb740e591)">
     <use xlink:href="#m6ba260c011" x="51.764602" y="259.248447" style="fill: #5f27cd; stroke: #5f27cd"/>
     <use xlink:href="#m6ba260c011" x="116.695511" y="253.347959" style="fill: #5f27cd; stroke: #5f27cd"/>
     <use xlink:href="#m6ba260c011" x="181.62642" y="229.746008" style="fill: #5f27cd; stroke: #5f27cd"/>
     <use xlink:href="#m6ba260c011" x="246.55733" y="170.74113" style="fill: #5f27cd; stroke: #5f27cd"/>
     <use xlink:href="#m6ba260c011" x="311.488239" y="111.736252" style="fill: #5f27cd; stroke: #5f27cd"/>
     <use xlink:href="#m6ba260c011" x="376.419148" y="17.328447" style="fill: #5f27cd; stroke: #5f27cd"/>
    </g>
   </g>
   <g id="patch_3">
    <path d="M 35.531875 271.344447 
L 35.531875 5.232447 
" style="fill: none; stroke: #000000; stroke-width: 0.8; stroke-linejoin: miter; stroke-linecap: square"/>
   </g>
   <g id="patch_4">
    <path d="M 35.531875 271.344447 
L 392.651875 271.344447 
" style="fill: none; stroke: #000000; stroke-width: 0.8; stroke-linejoin: miter; stroke-linecap: square"/>
   </g>
   <g id="text_15">
    <!-- +5.6% -->
    <g transform="translate(361.075398 227.706323) scale(0.1 -0.1)">
     <defs>
      <path id="Rockwell-Regular-2b" d="M 4166 2625 
L 4166 2088 
L 2578 2088 
L 2578 500 
L 2047 500 
L 2047 2088 
L 459 2088 
L 459 2625 
L 2047 2625 
L 2047 4213 
L 2578 4213 
L 2578 2625 
L 4166 2625 
z
" transform="scale(0.015625)"/>
      <path id="Rockwell-Regular-35" d="M 2591 3456 
L 2591 4116 
L 1153 4116 
L 1050 2719 
Q 1466 3066 2016 3066 
Q 2456 3066 2782 2855 
Q 3109 2644 3282 2292 
Q 3456 1941 3456 1516 
Q 3456 1044 3261 681 
Q 3066 319 2697 120 
Q 2328 -78 1838 -78 
Q 1119 -78 706 330 
Q 294 738 250 1503 
L 856 1503 
Q 916 1019 1172 744 
Q 1428 469 1844 469 
Q 2259 469 2521 753 
Q 2784 1038 2784 1503 
Q 2784 1984 2537 2243 
Q 2291 2503 1906 2503 
Q 1344 2503 966 1931 
Q 756 2138 475 2284 
L 666 4703 
L 3175 4703 
L 3175 3456 
L 2591 3456 
z
" transform="scale(0.015625)"/>
      <path id="Rockwell-Regular-2e" d="M 594 0 
L 594 831 
L 1428 831 
L 1428 0 
L 594 0 
z
" transform="scale(0.015625)"/>
      <path id="Rockwell-Regular-36" d="M 3334 3322 
L 2766 3322 
Q 2719 3706 2492 3968 
Q 2266 4231 1919 4231 
Q 1478 4231 1225 3767 
Q 972 3303 959 2478 
Q 1453 2994 2069 2994 
Q 2413 2994 2711 2825 
Q 3009 2656 3190 2329 
Q 3372 2003 3372 1550 
Q 3372 1100 3206 729 
Q 3041 359 2720 140 
Q 2400 -78 1959 -78 
Q 1484 -78 1120 178 
Q 756 434 548 965 
Q 341 1497 341 2291 
Q 341 3463 766 4125 
Q 1191 4788 1997 4788 
Q 2613 4788 2964 4378 
Q 3316 3969 3334 3322 
z
M 1931 488 
Q 2322 488 2550 772 
Q 2778 1056 2778 1484 
Q 2778 1875 2570 2128 
Q 2363 2381 1991 2381 
Q 1484 2381 991 1759 
Q 1147 488 1931 488 
z
" transform="scale(0.015625)"/>
     </defs>
     <use xlink:href="#Rockwell-Regular-2b"/>
     <use xlink:href="#Rockwell-Regular-35" x="72.314453"/>
     <use xlink:href="#Rockwell-Regular-2e" x="131.005859"/>
     <use xlink:href="#Rockwell-Regular-36" x="162.597656"/>
     <use xlink:href="#Rockwell-Regular-25" x="221.289062"/>
    </g>
   </g>
   <g id="text_16">
    <!-- +19.1% -->
    <g transform="translate(358.141023 175.894489) scale(0.1 -0.1)">
     <defs>
      <path id="Rockwell-Regular-39" d="M 3353 2406 
Q 3353 1234 2925 578 
Q 2497 -78 1703 -78 
Q 1094 -78 739 319 
Q 384 716 353 1394 
L 922 1394 
Q 978 972 1200 726 
Q 1422 481 1741 481 
Q 2209 481 2470 964 
Q 2731 1447 2731 2234 
Q 2253 1716 1631 1716 
Q 1259 1716 962 1895 
Q 666 2075 492 2408 
Q 319 2741 319 3175 
Q 319 3609 486 3978 
Q 653 4347 973 4567 
Q 1294 4788 1734 4788 
Q 2472 4788 2912 4189 
Q 3353 3591 3353 2406 
z
M 1703 2328 
Q 2216 2328 2700 2950 
Q 2625 3591 2394 3908 
Q 2163 4225 1753 4225 
Q 1381 4225 1148 3942 
Q 916 3659 916 3225 
Q 916 2841 1117 2584 
Q 1319 2328 1703 2328 
z
" transform="scale(0.015625)"/>
     </defs>
     <use xlink:href="#Rockwell-Regular-2b"/>
     <use xlink:href="#Rockwell-Regular-31" x="72.314453"/>
     <use xlink:href="#Rockwell-Regular-39" x="131.005859"/>
     <use xlink:href="#Rockwell-Regular-2e" x="189.697266"/>
     <use xlink:href="#Rockwell-Regular-31" x="221.289062"/>
     <use xlink:href="#Rockwell-Regular-25" x="279.980469"/>
    </g>
   </g>
   <g id="text_17">
    <!-- +30.2% -->
    <g transform="translate(358.141023 133.314692) scale(0.1 -0.1)">
     <defs>
      <path id="Rockwell-Regular-33" d="M 3256 3541 
Q 3256 3150 3054 2881 
Q 2853 2613 2591 2484 
Q 3053 2350 3261 2064 
Q 3469 1778 3469 1325 
Q 3469 856 3236 537 
Q 3003 219 2634 70 
Q 2266 -78 1850 -78 
Q 1081 -78 656 333 
Q 231 744 231 1594 
L 850 1594 
Q 872 1069 1144 775 
Q 1416 481 1888 481 
Q 2309 481 2556 711 
Q 2803 941 2803 1306 
Q 2803 1678 2515 1923 
Q 2228 2169 1631 2169 
Q 1484 2169 1422 2163 
L 1422 2747 
L 1509 2747 
Q 1831 2747 2064 2790 
Q 2297 2834 2458 2992 
Q 2619 3150 2619 3463 
Q 2619 3769 2436 4003 
Q 2253 4238 1881 4238 
Q 1491 4238 1305 4003 
Q 1119 3769 1100 3291 
L 441 3291 
L 441 3341 
Q 441 3928 694 4258 
Q 947 4588 1258 4688 
Q 1569 4788 1831 4788 
Q 2541 4788 2898 4436 
Q 3256 4084 3256 3541 
z
" transform="scale(0.015625)"/>
     </defs>
     <use xlink:href="#Rockwell-Regular-2b"/>
     <use xlink:href="#Rockwell-Regular-33" x="72.314453"/>
     <use xlink:href="#Rockwell-Regular-30" x="131.005859"/>
     <use xlink:href="#Rockwell-Regular-2e" x="189.697266"/>
     <use xlink:href="#Rockwell-Regular-32" x="221.289062"/>
     <use xlink:href="#Rockwell-Regular-25" x="279.980469"/>
    </g>
   </g>
   <g id="text_18">
    <!-- +63.1% -->
    <g transform="translate(358.141023 7.357812) scale(0.1 -0.1)">
     <use xlink:href="#Rockwell-Regular-2b"/>
     <use xlink:href="#Rockwell-Regular-36" x="72.314453"/>
     <use xlink:href="#Rockwell-Regular-33" x="131.005859"/>
     <use xlink:href="#Rockwell-Regular-2e" x="189.697266"/>
     <use xlink:href="#Rockwell-Regular-31" x="221.289062"/>
     <use xlink:href="#Rockwell-Regular-25" x="279.980469"/>
    </g>
   </g>
   <g id="legend_1">
    <g id="patch_5">
     <path d="M 43.931875 85.471197 
L 157.68625 85.471197 
Q 160.08625 85.471197 160.08625 83.071197 
L 160.08625 13.632447 
Q 160.08625 11.232447 157.68625 11.232447 
L 43.931875 11.232447 
Q 41.531875 11.232447 41.531875 13.632447 
L 41.531875 83.071197 
Q 41.531875 85.471197 43.931875 85.471197 
L 43.931875 85.471197 
z
" style="fill: none; opacity: 0"/>
    </g>
    <g id="line2d_18">
     <path d="M 46.331875 20.796822 
L 58.331875 20.796822 
L 70.331875 20.796822 
" style="fill: none; stroke: #e84118; stroke-width: 1.5; stroke-linecap: square"/>
     <g>
      <use xlink:href="#m3bd81db862" x="58.331875" y="20.796822" style="fill: #e84118; stroke: #e84118"/>
     </g>
    </g>
    <g id="text_19">
     <!-- DiT Wages -->
     <g transform="translate(79.931875 24.996822) scale(0.12 -0.12)">
      <defs>
       <path id="Rockwell-Regular-44" d="M 4738 2425 
Q 4738 1216 4008 608 
Q 3278 0 1838 0 
L 78 0 
L 78 588 
L 709 588 
L 709 4122 
L 78 4122 
L 78 4709 
L 1869 4709 
Q 3316 4709 4027 4162 
Q 4738 3616 4738 2425 
z
M 3963 2394 
Q 3963 2994 3752 3372 
Q 3541 3750 3083 3936 
Q 2625 4122 1875 4122 
L 1422 4122 
L 1422 588 
L 1869 588 
Q 2956 588 3459 1023 
Q 3963 1459 3963 2394 
z
" transform="scale(0.015625)"/>
       <path id="Rockwell-Regular-54" d="M 3444 2988 
L 3444 4122 
L 2472 4122 
L 2472 588 
L 3084 588 
L 3084 0 
L 1159 0 
L 1159 588 
L 1759 588 
L 1759 4122 
L 794 4122 
L 794 2988 
L 213 2988 
L 213 4709 
L 4025 4709 
L 4025 2988 
L 3444 2988 
z
" transform="scale(0.015625)"/>
       <path id="Rockwell-Regular-57" d="M 1375 4122 
L 2253 1025 
L 3122 4122 
L 2559 4122 
L 2559 4709 
L 4722 4709 
L 4722 4122 
L 4166 4122 
L 5025 1025 
L 5906 4122 
L 5350 4122 
L 5350 4709 
L 7078 4709 
L 7078 4122 
L 6534 4122 
L 5344 -50 
L 4678 -50 
L 3616 3700 
L 2559 -50 
L 1900 -50 
L 697 4122 
L 141 4122 
L 141 4709 
L 1941 4709 
L 1941 4122 
L 1375 4122 
z
" transform="scale(0.015625)"/>
       <path id="Rockwell-Regular-61" d="M 3041 2125 
L 3041 575 
L 3591 575 
L 3591 0 
L 2472 0 
L 2472 403 
Q 2003 -56 1428 -56 
Q 1125 -56 873 84 
Q 622 225 470 461 
Q 319 697 319 984 
Q 319 1294 486 1536 
Q 653 1778 937 1909 
Q 1222 2041 1509 2041 
Q 1991 2041 2406 1759 
L 2406 2113 
Q 2406 2497 2243 2662 
Q 2081 2828 1709 2828 
Q 1447 2828 1270 2733 
Q 1094 2638 978 2444 
L 359 2597 
Q 569 2988 925 3180 
Q 1281 3372 1772 3372 
Q 2431 3372 2736 3072 
Q 3041 2772 3041 2125 
z
M 1516 441 
Q 1991 441 2406 838 
L 2406 1222 
Q 1984 1550 1563 1550 
Q 1306 1550 1120 1389 
Q 934 1228 934 984 
Q 934 750 1096 595 
Q 1259 441 1516 441 
z
" transform="scale(0.015625)"/>
       <path id="Rockwell-Regular-67" d="M 3028 2809 
L 3028 3284 
L 4263 3284 
L 4263 2706 
L 3669 2706 
L 3669 244 
Q 3669 -616 3236 -1083 
Q 2803 -1550 1972 -1550 
Q 1184 -1550 628 -1106 
L 1044 -641 
Q 1269 -806 1495 -889 
Q 1722 -972 1991 -972 
Q 2478 -972 2753 -669 
Q 3028 -366 3028 134 
L 3028 441 
Q 2816 191 2489 47 
Q 2163 -97 1838 -97 
Q 1381 -97 1017 134 
Q 653 366 448 748 
Q 244 1131 244 1588 
Q 244 2053 458 2453 
Q 672 2853 1044 3090 
Q 1416 3328 1869 3328 
Q 2194 3328 2476 3200 
Q 2759 3072 3028 2809 
z
M 1959 481 
Q 2266 481 2512 634 
Q 2759 788 2896 1047 
Q 3034 1306 3034 1606 
Q 3034 1888 2896 2147 
Q 2759 2406 2515 2565 
Q 2272 2725 1972 2725 
Q 1678 2725 1437 2572 
Q 1197 2419 1062 2159 
Q 928 1900 928 1600 
Q 928 1294 1056 1037 
Q 1184 781 1420 631 
Q 1656 481 1959 481 
z
" transform="scale(0.015625)"/>
       <path id="Rockwell-Regular-73" d="M 2234 3144 
L 2234 3284 
L 2797 3284 
L 2797 2194 
L 2234 2194 
L 2234 2394 
Q 1953 2797 1466 2797 
Q 1209 2797 1046 2684 
Q 884 2572 884 2394 
Q 884 2234 1007 2143 
Q 1131 2053 1563 1984 
L 1997 1900 
Q 2969 1722 2969 947 
Q 2969 494 2617 219 
Q 2266 -56 1684 -56 
Q 1453 -56 1229 11 
Q 1006 78 856 178 
L 856 0 
L 281 0 
L 281 1125 
L 856 1125 
L 856 1013 
Q 903 775 1120 631 
Q 1338 488 1625 488 
Q 1941 488 2122 598 
Q 2303 709 2303 928 
Q 2303 1088 2159 1167 
Q 2016 1247 1581 1331 
L 1247 1403 
Q 750 1503 519 1747 
Q 288 1991 288 2369 
Q 288 2675 458 2892 
Q 628 3109 893 3218 
Q 1159 3328 1441 3328 
Q 1913 3328 2234 3144 
z
" transform="scale(0.015625)"/>
      </defs>
      <use xlink:href="#Rockwell-Regular-44"/>
      <use xlink:href="#Rockwell-Regular-69" x="79.003906"/>
      <use xlink:href="#Rockwell-Regular-54" x="109.619141"/>
      <use xlink:href="#Rockwell-Regular-20" x="175.732422"/>
      <use xlink:href="#Rockwell-Regular-57" x="202.832031"/>
      <use xlink:href="#Rockwell-Regular-61" x="315.527344"/>
      <use xlink:href="#Rockwell-Regular-67" x="373.535156"/>
      <use xlink:href="#Rockwell-Regular-65" x="441.357422"/>
      <use xlink:href="#Rockwell-Regular-73" x="503.173828"/>
     </g>
    </g>
    <g id="line2d_19">
     <path d="M 46.331875 38.532447 
L 58.331875 38.532447 
L 70.331875 38.532447 
" style="fill: none; stroke: #0097e6; stroke-width: 1.5; stroke-linecap: square"/>
     <g>
      <use xlink:href="#mbf34176e59" x="58.331875" y="38.532447" style="fill: #0097e6; stroke: #0097e6"/>
     </g>
    </g>
    <g id="text_20">
     <!-- Inflation -->
     <g transform="translate(79.931875 42.732447) scale(0.12 -0.12)">
      <defs>
       <path id="Rockwell-Regular-49" d="M 1428 4122 
L 1428 588 
L 1941 588 
L 1941 0 
L 206 0 
L 206 588 
L 716 588 
L 716 4122 
L 206 4122 
L 206 4709 
L 1941 4709 
L 1941 4122 
L 1428 4122 
z
" transform="scale(0.015625)"/>
       <path id="Rockwell-Regular-66" d="M 2388 4050 
L 1813 3963 
Q 1784 4281 1569 4281 
Q 1416 4281 1364 4172 
Q 1313 4063 1313 3781 
L 1313 3284 
L 1875 3284 
L 1875 2706 
L 1313 2706 
L 1313 575 
L 1931 575 
L 1931 0 
L 184 0 
L 184 575 
L 666 575 
L 666 2706 
L 184 2706 
L 184 3284 
L 666 3284 
L 666 3794 
Q 666 4244 886 4525 
Q 1106 4806 1538 4806 
Q 1894 4806 2111 4617 
Q 2328 4428 2388 4050 
z
" transform="scale(0.015625)"/>
       <path id="Rockwell-Regular-6c" d="M 1850 575 
L 1850 0 
L 122 0 
L 122 575 
L 703 575 
L 703 4141 
L 122 4141 
L 122 4709 
L 1350 4709 
L 1350 575 
L 1850 575 
z
" transform="scale(0.015625)"/>
      </defs>
      <use xlink:href="#Rockwell-Regular-49"/>
      <use xlink:href="#Rockwell-Regular-6e" x="33.59375"/>
      <use xlink:href="#Rockwell-Regular-66" x="96.777344"/>
      <use xlink:href="#Rockwell-Regular-6c" x="128.369141"/>
      <use xlink:href="#Rockwell-Regular-61" x="160.449219"/>
      <use xlink:href="#Rockwell-Regular-74" x="218.457031"/>
      <use xlink:href="#Rockwell-Regular-69" x="251.074219"/>
      <use xlink:href="#Rockwell-Regular-6f" x="281.689453"/>
      <use xlink:href="#Rockwell-Regular-6e" x="343.212891"/>
     </g>
    </g>
    <g id="line2d_20">
     <path d="M 46.331875 56.121822 
L 58.331875 56.121822 
L 70.331875 56.121822 
" style="fill: none; stroke: #44bd32; stroke-width: 1.5; stroke-linecap: square"/>
     <g>
      <use xlink:href="#med036dc60f" x="58.331875" y="56.121822" style="fill: #44bd32; stroke: #44bd32"/>
     </g>
    </g>
    <g id="text_21">
     <!-- AHPRA Fees -->
     <g transform="translate(79.931875 60.321822) scale(0.12 -0.12)">
      <defs>
       <path id="Rockwell-Regular-41" d="M 3256 4141 
L 4531 588 
L 5056 588 
L 5056 0 
L 3200 0 
L 3200 588 
L 3816 588 
L 3450 1656 
L 1741 1656 
L 1375 588 
L 1972 588 
L 1972 0 
L 103 0 
L 103 588 
L 672 588 
L 1941 4141 
L 1375 4141 
L 1375 4709 
L 3822 4709 
L 3822 4141 
L 3256 4141 
z
M 2613 4141 
L 2591 4141 
L 1925 2209 
L 3263 2209 
L 2613 4141 
z
" transform="scale(0.015625)"/>
       <path id="Rockwell-Regular-48" d="M 1422 4122 
L 1422 2791 
L 3469 2791 
L 3469 4122 
L 2919 4122 
L 2919 4709 
L 4722 4709 
L 4722 4122 
L 4178 4122 
L 4178 588 
L 4722 588 
L 4722 0 
L 2919 0 
L 2919 588 
L 3469 588 
L 3469 2203 
L 1422 2203 
L 1422 588 
L 1978 588 
L 1978 0 
L 178 0 
L 178 588 
L 709 588 
L 709 4122 
L 178 4122 
L 178 4709 
L 1978 4709 
L 1978 4122 
L 1422 4122 
z
" transform="scale(0.015625)"/>
       <path id="Rockwell-Regular-50" d="M 3781 3256 
Q 3781 2613 3384 2213 
Q 2988 1813 2041 1806 
L 1422 1806 
L 1422 588 
L 2034 588 
L 2034 0 
L 122 0 
L 122 588 
L 709 588 
L 709 4122 
L 122 4122 
L 122 4709 
L 1875 4709 
Q 2584 4709 3001 4556 
Q 3419 4403 3600 4089 
Q 3781 3775 3781 3256 
z
M 3059 3272 
Q 3059 3713 2800 3917 
Q 2541 4122 1913 4122 
L 1422 4122 
L 1422 2375 
L 1863 2375 
Q 2297 2375 2556 2454 
Q 2816 2534 2937 2729 
Q 3059 2925 3059 3272 
z
" transform="scale(0.015625)"/>
       <path id="Rockwell-Regular-52" d="M 3744 3475 
Q 3744 3022 3487 2714 
Q 3231 2406 2772 2291 
L 3603 588 
L 4178 588 
L 4178 0 
L 3122 0 
L 2081 2194 
L 1422 2194 
L 1422 588 
L 2022 588 
L 2022 0 
L 72 0 
L 72 588 
L 709 588 
L 709 4122 
L 72 4122 
L 72 4709 
L 2028 4709 
Q 2938 4709 3341 4412 
Q 3744 4116 3744 3475 
z
M 3009 3488 
Q 3009 3816 2803 3969 
Q 2597 4122 2150 4122 
L 1422 4122 
L 1422 2784 
L 2106 2784 
Q 2566 2784 2787 2943 
Q 3009 3103 3009 3488 
z
" transform="scale(0.015625)"/>
       <path id="Rockwell-Regular-46" d="M 3188 3334 
L 3188 4122 
L 1422 4122 
L 1422 2725 
L 2944 2725 
L 2944 2138 
L 1422 2138 
L 1422 588 
L 2022 588 
L 2022 0 
L 116 0 
L 116 588 
L 709 588 
L 709 4122 
L 116 4122 
L 116 4709 
L 3769 4709 
L 3769 3334 
L 3188 3334 
z
" transform="scale(0.015625)"/>
      </defs>
      <use xlink:href="#Rockwell-Regular-41"/>
      <use xlink:href="#Rockwell-Regular-48" x="80.615234"/>
      <use xlink:href="#Rockwell-Regular-50" x="157.128906"/>
      <use xlink:href="#Rockwell-Regular-52" x="218.945312"/>
      <use xlink:href="#Rockwell-Regular-41" x="285.351562"/>
      <use xlink:href="#Rockwell-Regular-20" x="365.966797"/>
      <use xlink:href="#Rockwell-Regular-46" x="393.066406"/>
      <use xlink:href="#Rockwell-Regular-65" x="454.150391"/>
      <use xlink:href="#Rockwell-Regular-65" x="515.966797"/>
      <use xlink:href="#Rockwell-Regular-73" x="577.783203"/>
     </g>
    </g>
    <g id="line2d_21">
     <path d="M 46.331875 73.711197 
L 58.331875 73.711197 
L 70.331875 73.711197 
" style="fill: none; stroke: #5f27cd; stroke-width: 1.5; stroke-linecap: square"/>
     <g>
      <use xlink:href="#m6ba260c011" x="58.331875" y="73.711197" style="fill: #5f27cd; stroke: #5f27cd"/>
     </g>
    </g>
    <g id="text_22">
     <!-- Perth Rent -->
     <g transform="translate(79.931875 77.911197) scale(0.12 -0.12)">
      <use xlink:href="#Rockwell-Regular-50"/>
      <use xlink:href="#Rockwell-Regular-65" x="61.816406"/>
      <use xlink:href="#Rockwell-Regular-72" x="123.632812"/>
      <use xlink:href="#Rockwell-Regular-74" x="168.945312"/>
      <use xlink:href="#Rockwell-Regular-68" x="201.5625"/>
      <use xlink:href="#Rockwell-Regular-20" x="264.355469"/>
      <use xlink:href="#Rockwell-Regular-52" x="291.455078"/>
      <use xlink:href="#Rockwell-Regular-65" x="357.861328"/>
      <use xlink:href="#Rockwell-Regular-6e" x="419.677734"/>
      <use xlink:href="#Rockwell-Regular-74" x="482.861328"/>
     </g>
    </g>
   </g>
  </g>
 </g>
 <defs>
  <clipPath id="p1fb740e591">
   <rect x="35.531875" y="5.232447" width="357.12" height="266.112"/>
  </clipPath>
 </defs>
</svg>
